<?xml version="1.0" encoding="utf-8"?>
<!-- Svg Vector Icons : http://www.onlinewebfonts.com/icon -->
<!DOCTYPE svg PUBLIC "-//W3C//DTD SVG 1.1//EN" "http://www.w3.org/Graphics/SVG/1.1/DTD/svg11.dtd">
<svg version="1.1" xmlns="http://www.w3.org/2000/svg" xmlns:xlink="http://www.w3.org/1999/xlink" x="0px" y="0px" viewBox="0 0 1000 1000" enable-background="new 0 0 1000 1000" xml:space="preserve">
<g><g><path d="M825.9,562.1c-4.7,0-9.1,1-13.7,1.4c4.7-28.8,7.8-32.1,8.4-62.4c0,0.2-0.1,0.4-0.1,0.7c0.4-2.7,0.9-5.4,0.9-8.1c-7.2-151.2-189-237.9-393.8-239.7c-204.8,1.8-386.5,88.5-393.9,239.7c0.2,2.7,0.8,5.4,1,8.1c0,0,0,0,0,0C40.8,772.6,214.2,990,427.6,990c116.9,0,221.6-65.5,293.5-168.9c25.6,29.1,62.8,47.8,104.8,47.8c77.5,0,140.3-88.8,140.3-166.4C966.2,625.1,903.4,562.1,825.9,562.1z M682.1,598.2c-62.9,35.8-154.5,59.6-256.1,59.5c-101.8,0.2-193.4-23.7-256.4-59.5c-63.8-36.3-93.9-80.7-93.3-120.1c-0.6-39.7,29.7-84.2,93.3-120.4c62.9-35.9,154.6-59.6,256.4-59.5c101.7-0.2,193.3,23.6,256.1,59.5c63.8,36.3,94,80.7,93.5,120.4C776.1,517.4,745.9,561.9,682.1,598.2z M825.9,792.8c-29.7,0-53.7-20.6-61-48c10.1-22,19.1-71.2,26.7-95.2c10.1-6.5,21.3-11.2,34.2-11.4c35.4,0.2,64.1,28.9,64.2,64.3C890,737.9,861.3,792.7,825.9,792.8z"/><path d="M650.1,368.9c-55-31.3-135.2-52.1-224.2-52c-89.1-0.1-169.3,20.7-224.4,52c-55.7,31.8-82.2,70.7-81.7,105.4c-0.4,34.5,25.9,73.4,81.7,105.2c0,0,77.9-163.1,203-40.3c125,122.8,61.6-129.8,161.8-32.1c100.3,97.7,165.6-32.8,165.6-32.8C732.4,439.6,706,400.7,650.1,368.9z"/><path d="M330.9,79.8c5,4.1,10.2,7,15.1,10.2c9.4,6.2,19.7,12.2,26.7,19.6c3.6,3.7,6.7,7.8,9.3,11.6c2.6,3.9,4.9,7.6,6.3,11.4c2.8,7.5,2.3,14.7,0.8,22.9c-2.9,16.7-13.1,35.4-23.2,56l1.7,2c11.4-4,21-10.9,29.6-19.3c8.5-8.5,15.7-19.1,19.4-32.3c3.8-12.9,1.4-29.1-6.2-40.9c-7.3-12.2-18.7-19.4-29.8-23.6c-5.6-2.3-11.3-3.9-16.1-5.9c-4.9-2.1-9.5-4.9-13.4-8.4c-8-6.8-11.6-18-10.7-24.5c0.3-3.2,0.9-5.9,2-9.5c1.2-3.4,3.2-7.3,5.9-11.2c5.1-7.9,12.1-16.1,19-25.5l-1.2-2.3c-6.2,0.4-12,2-17.4,4.3c-5.6,2.3-10.8,5.5-15.6,9.6c-4.8,4.2-9.3,9.4-12.4,16c-3.1,6.6-4.3,15.1-2,22.6C321.1,70.1,325.9,75.8,330.9,79.8z"/><path d="M434.3,128c3.9,2.6,7.6,4.3,10.8,6.2c6.3,3.8,13.1,8.2,16.9,13.7c4,5.6,6.4,10.9,7.6,14.7c0.9,4.2,0.2,7.2-0.4,11.8c-0.5,4.4-2.1,10-4,16.2c-2,6.3-4.5,12.9-6.6,20.9l1.7,2c8.5-1.5,15.5-5.5,21.9-10.8c6.3-5.3,11.7-12.5,14.4-21.9c2.9-9.3,0.9-21.4-4.9-29.7c-5.4-8.8-14-13.3-21.9-15.4c-4-1.2-8-2-11.1-3.1c-3.2-1.1-6.1-2.9-8.5-5.2c-5.1-4.6-5.7-12.8-4-15.4c0.7-1.4,0.9-2.2,1.3-3.9c0.5-1.7,1.4-4,2.6-6.5c2.6-5.2,6.3-11,9.9-18.6l-1.2-2.3c-4.5-0.6-8.6,0-12.6,1.2c-4.1,1.1-7.8,3.1-11.3,5.8c-3.5,2.7-6.8,6.3-9.1,11.2c-2.4,4.7-3.3,11.3-1.3,16.9C426.6,121.6,430.5,125.5,434.3,128z"/></g><g></g><g></g><g></g><g></g><g></g><g></g><g></g><g></g><g></g><g></g><g></g><g></g><g></g><g></g><g></g></g>
</svg>