<?xml version="1.0" encoding="UTF-8" standalone="no"?>
<!-- Created with Inkscape (http://www.inkscape.org/) -->

<svg
   xmlns:dc="http://purl.org/dc/elements/1.1/"
   xmlns:cc="http://creativecommons.org/ns#"
   xmlns:rdf="http://www.w3.org/1999/02/22-rdf-syntax-ns#"
   xmlns:svg="http://www.w3.org/2000/svg"
   xmlns="http://www.w3.org/2000/svg"
   xmlns:sodipodi="http://sodipodi.sourceforge.net/DTD/sodipodi-0.dtd"
   xmlns:inkscape="http://www.inkscape.org/namespaces/inkscape"
   width="261.01614mm"
   height="95.257309mm"
   viewBox="0 0 261.01614 95.257309"
   version="1.1"
   id="svg8"
   inkscape:version="0.92.1 r15371"
   sodipodi:docname="devby-logo.svg">
  <defs
     id="defs2" />
  <sodipodi:namedview
     id="base"
     pagecolor="#ffffff"
     bordercolor="#666666"
     borderopacity="1.0"
     inkscape:pageopacity="0.0"
     inkscape:pageshadow="2"
     inkscape:zoom="0.49497475"
     inkscape:cx="153.69893"
     inkscape:cy="606.35303"
     inkscape:document-units="mm"
     inkscape:current-layer="layer1"
     showgrid="false"
     fit-margin-top="0"
     fit-margin-left="0"
     fit-margin-right="0"
     fit-margin-bottom="0"
     inkscape:window-width="1920"
     inkscape:window-height="1017"
     inkscape:window-x="-8"
     inkscape:window-y="-8"
     inkscape:window-maximized="1" />
  <metadata
     id="metadata5">
    <rdf:RDF>
      <cc:Work
         rdf:about="">
        <dc:format>image/svg+xml</dc:format>
        <dc:type
           rdf:resource="http://purl.org/dc/dcmitype/StillImage" />
        <dc:title></dc:title>
      </cc:Work>
    </rdf:RDF>
  </metadata>
  <g
     inkscape:label="Layer 1"
     inkscape:groupmode="layer"
     id="layer1"
     transform="translate(0,-201.74269)">
    <path
       style="opacity:1;fill:#007dc6;fill-opacity:1;stroke:none;stroke-width:0.35277778;stroke-opacity:1"
       d="M 59.618558,296.47981 C 45.630545,294.26809 33.372013,285.82958 26.12752,273.42529 23.503276,268.93197 19.579411,259.35686 10.570438,235.46255 8.9610251,231.19394 5.9240811,223.34696 3.8216731,218.02481 -0.20763792,207.82479 -0.55999792,206.34622 0.53425208,204.23018 c 0.29432,-0.56917 1.04839002,-1.31535 1.67569302,-1.65818 1.065683,-0.58241 3.473801,-0.62955 36.6829179,-0.7181 l 35.542361,-0.0948 v 14.29407 c 0,7.86174 -0.05962,14.29408 -0.132493,14.29408 -0.07287,0 -1.012568,-0.38922 -2.088215,-0.86492 -9.694595,-4.28741 -20.92476,-2.04357 -28.025668,5.59965 -7.105866,7.64854 -8.732651,18.36578 -4.181021,27.54443 5.77093,11.63745 18.074013,16.59069 30.644864,12.33767 3.526511,-1.19311 6.056118,-2.81343 9.072358,-5.81128 3.116499,-3.09748 4.896989,-6.21577 6.065576,-10.62303 0.772615,-2.91389 0.786349,-3.36845 0.902688,-29.873 l 0.118131,-26.91408 37.997306,0.12179 c 37.74351,0.12098 38.02026,0.12702 41.43472,0.90353 9.45312,2.14982 17.22031,6.40463 23.91661,13.10136 6.90524,6.90568 11.25956,14.96767 13.24988,24.53204 0.89506,4.30121 0.91458,13.51533 0.0379,17.87957 -3.46155,17.23145 -15.56772,30.96629 -32.11862,36.43959 -7.23799,2.39356 -4.92455,2.30536 -59.47351,2.26751 -39.372262,-0.0273 -49.839383,-0.12917 -52.237142,-0.5083 z m 59.051652,-21.31988 c 4.26413,-1.09058 7.35349,-2.89629 10.85899,-6.34703 2.41843,-2.38064 3.14343,-3.3317 3.46113,-4.54028 0.99953,-3.80243 -1.75932,-7.46701 -5.62147,-7.46701 -1.94779,0 -2.52566,0.3413 -5.72197,3.37938 -2.30814,2.19388 -3.05335,2.67959 -5.06424,3.30069 -2.95361,0.91227 -4.76912,0.91825 -7.66042,0.0252 -3.12418,-0.96496 -6.8924,-3.88307 -5.01429,-3.88307 0.95927,0 29.92142,-6.39339 30.59489,-6.75382 1.07051,-0.57292 2.01854,-2.48587 2.01996,-4.07588 7e-4,-0.8146 -0.3915,-2.7196 -0.8716,-4.23334 -2.15398,-6.79133 -7.28246,-12.36517 -13.82217,-15.02249 -3.37801,-1.37261 -5.71171,-1.82645 -9.2938,-1.80737 -4.04286,0.0215 -6.87106,0.71356 -10.92289,2.67271 -4.216194,2.03861 -8.427179,6.26096 -10.494665,10.52297 -6.805648,14.0295 0.558031,30.29978 15.482635,34.20938 3.52153,0.92248 8.50879,0.93072 12.06991,0.0199 z m -17.77334,-27.22371 c 0.006,-0.88177 2.04388,-4.0493 3.33355,-5.18164 3.12907,-2.74736 7.47672,-3.84263 11.46008,-2.88703 1.97648,0.47414 6.12769,3.02389 5.92299,3.638 -0.0694,0.20812 -1.46568,0.67054 -3.1029,1.0276 -1.63722,0.35706 -5.85319,1.27183 -9.36883,2.03281 -3.51564,0.76099 -6.8097,1.48843 -7.32014,1.61654 -0.66171,0.16608 -0.92711,0.0954 -0.92475,-0.24628 z m 60.2879,27.23107 c 1.78727,-0.9118 2.20014,-1.6124 10.61267,-18.0089 3.93221,-7.6641 7.7462,-14.9666 8.47554,-16.22778 3.13766,-5.4257 3.21179,-8.81783 0.24218,-11.08285 -3.44851,-2.63031 -7.36153,-1.15262 -9.66713,3.65064 -2.31619,4.82534 -12.18621,23.65999 -12.39866,23.65999 -0.35633,0 -0.54596,-0.35212 -6.93442,-12.87639 -3.26604,-6.40292 -6.27899,-12.15147 -6.69546,-12.77456 -1.84667,-2.76285 -4.78351,-3.65017 -7.49791,-2.26539 -2.13058,1.08694 -3.06593,2.59719 -3.07943,4.97212 -0.012,2.10927 0.46251,3.23894 4.67332,11.12616 1.13945,2.13431 4.81506,9.19868 8.16801,15.69861 3.35294,6.49993 6.43656,12.19637 6.85247,12.65874 1.98363,2.20521 4.71963,2.7599 7.24882,1.46961 z m 67.59072,0.18849 c -5.26476,-1.21429 -8.98508,-3.32432 -13.07394,-7.41504 -3.62937,-3.63104 -5.57197,-6.92214 -6.89671,-11.68426 -1.00432,-3.61028 -1.07922,-9.41248 -0.16825,-13.03281 1.35662,-5.39136 5.03407,-11.11257 9.30092,-14.46997 2.49064,-1.95976 6.90808,-4.16362 9.95604,-4.96705 3.13861,-0.82732 9.9439,-0.82382 13.03237,0.007 13.3935,3.60168 21.92018,16.47007 19.7551,29.8142 -1.61098,9.92904 -8.78704,18.1521 -18.49997,21.19916 -3.16083,0.9916 -10.23133,1.28119 -13.40556,0.54907 z m 17.38564,-9.57305 c 1.82666,-0.76304 3.19743,-2.14682 4.17498,-4.21462 0.79763,-1.68721 0.83403,-2.10166 0.83732,-9.5347 0.004,-8.60458 -0.15962,-9.33891 -2.07854,-9.33891 -1.74774,0 -2.07918,0.80365 -2.20963,5.35769 -0.11474,4.00573 -0.14744,4.15357 -1.15003,5.19908 -1.27977,1.33456 -2.84812,1.66846 -4.53206,0.96486 -1.91298,-0.79929 -2.37351,-2.02368 -2.37351,-6.31034 0,-4.17401 -0.42028,-5.21129 -2.11147,-5.21129 -1.86812,0 -2.12186,0.64863 -2.12186,5.42399 0,3.92851 0.0813,4.47851 0.90774,6.13687 1.76442,3.54072 5.71931,5.29506 9.53972,4.2317 l 1.97317,-0.5492 -0.21729,1.08642 c -0.45897,2.29489 -1.92561,3.16331 -5.42578,3.21269 -2.14169,0.0302 -2.68984,0.15771 -3.10197,0.72148 -0.65904,0.90153 -0.63562,2.1284 0.0538,2.8178 0.76375,0.76375 6.01219,0.76809 7.83544,0.006 z m -16.96562,-8.10685 c 3.98522,-1.98592 5.50568,-6.86417 3.43474,-11.02001 -1.9557,-3.92458 -6.57553,-5.54165 -10.82212,-3.78804 -0.56715,0.2342 -0.61736,-0.0781 -0.61736,-3.83975 0,-3.62432 -0.0811,-4.17574 -0.70556,-4.80025 -0.90866,-0.90866 -1.92594,-0.89628 -2.85698,0.0348 -0.72023,0.72024 -0.7367,0.98108 -0.60654,9.6132 0.12496,8.28814 0.18436,8.96875 0.90124,10.3278 0.84486,1.60166 2.51538,3.16195 4.14978,3.87594 1.82221,0.79604 5.08654,0.61105 7.1228,-0.40366 z m -5.44015,-3.50573 c -2.68646,-1.17784 -3.31045,-4.71203 -1.1697,-6.62495 0.87183,-0.77905 1.42669,-0.97014 2.81687,-0.97014 1.46279,0 1.89948,0.16829 2.81666,1.08547 1.19015,1.19015 1.45265,3.01433 0.67832,4.71381 -0.80998,1.77771 -3.24436,2.62787 -5.14215,1.79581 z m -165.993673,9.19091 c -2.710734,-1.11473 -3.481747,-1.65376 -4.97894,-3.48089 -2.175901,-2.6554 -2.865603,-4.59503 -2.849456,-8.01345 0.01743,-3.69138 0.760966,-5.53534 3.325294,-8.24674 2.522537,-2.66721 5.22956,-3.84054 8.860634,-3.84054 2.307406,0 3.091995,0.16718 5.021086,1.06991 2.813336,1.31652 4.954457,3.4029 6.184388,6.02629 0.793549,1.6926 0.934142,2.47032 0.934142,5.16747 0,2.76172 -0.128313,3.43629 -0.985746,5.18234 -1.269026,2.5842 -4.206279,5.29142 -6.789776,6.25803 -2.717839,1.01688 -6.065429,0.96989 -8.721626,-0.12242 z"
       id="path4518"
       inkscape:connector-curvature="0" />
  </g>
</svg>
