<?xml version="1.0" encoding="UTF-8" standalone="no"?>
<svg
   xmlns:dc="http://purl.org/dc/elements/1.1/"
   xmlns:cc="http://creativecommons.org/ns#"
   xmlns:rdf="http://www.w3.org/1999/02/22-rdf-syntax-ns#"
   xmlns:svg="http://www.w3.org/2000/svg"
   xmlns="http://www.w3.org/2000/svg"
   xmlns:sodipodi="http://sodipodi.sourceforge.net/DTD/sodipodi-0.dtd"
   xmlns:inkscape="http://www.inkscape.org/namespaces/inkscape"
   viewBox="0 0 78.472 78.472002"
   xml:space="preserve"
   version="1.1"
   id="svg137"
   sodipodi:docname="logo.svg"
   inkscape:version="0.92.1 r15371"><metadata
     id="metadata141"><rdf:RDF><cc:Work
         rdf:about=""><dc:format>image/svg+xml</dc:format><dc:type
           rdf:resource="http://purl.org/dc/dcmitype/StillImage" /><dc:title></dc:title><dc:rights><cc:Agent><dc:title>Axamit http://www.axamit.com/</dc:title></cc:Agent></dc:rights></cc:Work></rdf:RDF></metadata><sodipodi:namedview
     pagecolor="#ffffff"
     bordercolor="#666666"
     borderopacity="1"
     objecttolerance="10"
     gridtolerance="10"
     guidetolerance="10"
     inkscape:pageopacity="0"
     inkscape:pageshadow="2"
     inkscape:window-width="640"
     inkscape:window-height="480"
     id="namedview139"
     showgrid="false"
     inkscape:zoom="3.0074421"
     inkscape:cx="39.236"
     inkscape:cy="39.236"
     inkscape:window-x="0"
     inkscape:window-y="0"
     inkscape:window-maximized="0"
     inkscape:current-layer="svg137" /><defs
     id="defs6"><clipPath
       id="clipPath18"
       clipPathUnits="userSpaceOnUse"><path
         id="path16"
         d="M 0,85.153 H 58.854 V 0 H 0 Z"
         inkscape:connector-curvature="0" /></clipPath></defs><g
     transform="matrix(1.3333333,0,0,-1.3333333,-2.6666666e-4,113.5376)"
     id="g10"><g
       id="g14"
       clip-path="url(#clipPath18)"><g
         id="g20"
         transform="translate(29.4272,85.1532)" /><g
         id="g58"
         transform="translate(45.8501,58.9539)"><path
           id="path60"
           style="fill:#f5821f;fill-opacity:1;fill-rule:nonzero;stroke:none"
           d="m 0,0 -3.254,-3.282 3.318,-3.29 3.254,3.282 z m -19.641,-19.602 3.318,-3.29 3.254,3.281 -3.317,3.29 z m -9.951,16.174 -3.317,3.29 -3.254,-3.282 3.317,-3.29 z m 16.386,16.574 -3.318,3.29 -3.254,-3.281 3.318,-3.29 z m -2.2,-16.505 -1.006,0.997 -0.913,-0.921 1.005,-0.997 z m 8.075,-0.581 7.397,-7.409 -7.366,-0.031 -7.378,7.347 -1.72,-1.642 -1.749,1.597 -7.333,-7.379 -7.365,-0.031 7.334,7.472 7.361,0.031 -0.509,0.575 2.242,2.297 2.262,-2.296 -0.505,-0.562 z m -8.169,-8.271 7.472,-7.335 -0.031,7.366 -7.472,7.334 z m -1.802,7.358 -7.764,-7.399 0.031,-7.365 7.764,7.398 z m 9.965,2.33 7.334,7.472 -7.366,-0.031 -7.334,-7.471 z m -8.207,0.822 7.41,7.397 -0.031,7.366 -7.41,-7.397 z m -2.607,-0.867 -7.397,7.41 -7.366,-0.031 7.397,-7.41 z m 0.835,0.86 -7.825,7.333 -0.031,7.366 7.825,-7.333 z m 0.8931,27.9073 c -16.226,0 -29.427,-13.201 -29.427,-29.427 0,-16.226 13.201,-29.427 29.427,-29.427 16.226,0 29.427,13.201 29.427,29.427 0,16.226 -13.201,29.427 -29.427,29.427 m 0,-1.772 c 15.274,0 27.656,-12.381 27.656,-27.655 0,-15.274 -12.382,-27.656 -27.656,-27.656 -15.274,0 -27.656,12.382 -27.656,27.656 0,15.274 12.382,27.655 27.656,27.655"
           inkscape:connector-curvature="0" /></g></g></g></svg>