<?xml version="1.0" encoding="UTF-8"?>
<svg width="103.43" height="145.14" enable-background="new 0 0 216 146" version="1.1" viewBox="0 0 103.428 145.14301" xmlns="http://www.w3.org/2000/svg">
 <path d="m81.207 22.221c-8.147-8.148-17.978-12.221-29.493-12.221s-21.346 4.074-29.493 12.221-12.221 17.978-12.221 29.493c0 5.921 0.896 10.782 2.688 14.584l29.738 63.061c0.815 1.792 2.078 3.204 3.789 4.235 1.711 1.032 3.544 1.549 5.5 1.549 1.955 0 3.789-0.517 5.5-1.549 1.711-1.031 3-2.443 3.869-4.235l29.655-63.061c1.793-3.802 2.689-8.663 2.689-14.584 1e-3 -11.515-4.073-21.345-12.221-29.493zm-14.747 44.24c-4.073 4.073-8.988 6.11-14.746 6.11s-10.673-2.037-14.747-6.11c-4.074-4.074-6.111-8.989-6.111-14.747 0-5.757 2.037-10.673 6.111-14.746 4.074-4.074 8.99-6.111 14.747-6.111 5.758 0 10.673 2.037 14.746 6.111 4.074 4.073 6.111 8.989 6.111 14.746s-2.037 10.672-6.111 14.747z"/>
</svg>
