<?xml version="1.0" encoding="utf-8"?>
<!-- Generator: Adobe Illustrator 19.2.1, SVG Export Plug-In . SVG Version: 6.00 Build 0)  -->
<svg version="1.1" id="Layer_1" xmlns="http://www.w3.org/2000/svg" xmlns:xlink="http://www.w3.org/1999/xlink" x="0px" y="0px"
	 viewBox="0 0 291.3 291.3" style="enable-background:new 0 0 291.3 291.3;" xml:space="preserve">
<style type="text/css">
	.st0{fill:#C4302B;}
</style>
<g>
	<path class="st0" d="M163.6,166.3c-1.5,0-2.9,0.3-4.4,0.8c-1.4,0.5-2.8,1.3-4.1,2.3v-14.5h-9.6v45.1h9.6v-2.5
		c1.2,1,2.6,1.8,4.1,2.3c1.4,0.5,3.1,0.7,5,0.7c2.8,0,5-0.6,6.4-1.9c1.5-1.3,2.2-3.1,2.2-5.4c0,0,0-18.5,0-18.5
		c0-2.7-0.8-4.8-2.4-6.2C168.9,167,166.6,166.3,163.6,166.3z M163.1,192.2c0,1-0.3,1.8-0.8,2.3c-0.5,0.5-1.4,0.7-2.6,0.7l-2.3-0.4
		c-0.7-0.2-1.5-0.6-2.2-1.2v-20.7l2-1l2-0.3c1.3,0,2.3,0.3,2.9,0.9c0.7,0.6,1,1.4,1,2.6V192.2z"/>
	<polygon class="st0" points="81.9,161.3 91.1,161.3 91.1,199.4 100,199.4 100,161.3 109.1,161.3 109.1,154.8 81.9,154.8 	"/>
	<path class="st0" d="M127,191.2c-0.9,0.8-1.9,1.4-3,1.9c-1.1,0.5-2,0.8-2.7,0.8c-0.9,0-1.6-0.2-2-0.6c-0.4-0.4-0.6-1-0.6-1.8v-27.6
		h-9.6V194c0,2.1,0.6,3.7,1.7,4.8c1.1,1.1,2.8,1.6,5,1.6c1.8,0,3.7-0.4,5.6-1.2c1.9-0.7,3.8-1.9,5.5-3.3v4h9.6c0,0,0-36,0-36H127
		V191.2z"/>
	<path class="st0" d="M138.5,108.4c0.8,0.6,2,0.9,3.5,0.9c1.5,0,2.8-0.3,3.7-0.9c0.9-0.6,1.4-1.4,1.4-2.4v-21c0-0.8-0.5-1.5-1.4-2
		c-0.9-0.5-2.1-0.8-3.7-0.8c-1.4,0-2.5,0.3-3.4,0.8c-0.9,0.5-1.3,1.2-1.3,2v21C137.3,107,137.7,107.8,138.5,108.4z"/>
	<path class="st0" d="M145.7,0C65.2,0,0,65.2,0,145.7s65.2,145.7,145.7,145.7s145.7-65.2,145.7-145.7S226.1,0,145.7,0z M166.6,73
		h8.6v34c0,1,0.2,1.8,0.6,2.3c0.3,0.5,0.9,0.7,1.7,0.7c0.6,0,1.4-0.3,2.4-0.9c1-0.6,1.8-1.4,2.6-2.4V73h8.6v44.3h-8.6v-4.9
		c-1.6,1.8-3.2,3.2-5,4.1c-1.7,0.9-3.4,1.9-5,1.9c-2,0-3.5-1.1-4.5-2.4c-1-1.3-1.5-3.3-1.5-5.9V73z M127.5,83.9
		c0-3.3,1.4-5.9,4.1-7.9c2.7-2,6.4-2.9,11-2.9c4.2,0,7.6,1,10.3,3.1c2.7,2.1,4,4.8,4,8v22.1c0,3.7-1.3,6.5-3.9,8.6
		c-2.6,2.1-6.2,3.5-10.9,3.5c-4.4,0-8-1.5-10.7-3.7c-2.7-2.2-4-5-4-8.7V83.9z M102,54.7l7,25.5h0.7l6.7-25.5h11L114.9,92v26.5H104
		c0,0,0-25.3,0-25.3L91,54.7H102z M227.6,189.7c0,15.9-13.4,28.8-29.9,28.8h-104c-16.5,0-29.9-12.9-29.9-28.8v-24.3
		c0-15.9,13.4-28.8,29.9-28.8h104c16.5,0,29.9,12.9,29.9,28.8V189.7z"/>
	<path class="st0" d="M199.9,189.4c0,2-0.3,3.3-0.9,3.9c-0.6,0.6-1.7,0.9-3.2,0.9c-1.5,0-2.5-0.3-3.1-1c-0.6-0.7-0.9-2-0.9-3.8v-6.5
		h17.7c0,0,0-8.8,0-8.8c0-3.3-1.1-5.8-3.4-7.5c-2.3-1.7-5.5-2.6-9.8-2.6c-4.1,0-7.5,0.9-10.1,2.8c-2.6,1.9-3.9,4.3-3.9,7.3v15.5
		c0,3.3,1.2,5.9,3.6,7.8c2.4,1.9,5.6,2.8,9.8,2.8c4.6,0,8.1-0.9,10.4-2.7c2.3-1.8,3.5-4.5,3.5-8v-1.8h-9.5V189.4z M192.1,174.1
		c0-1.4,0.3-2.5,0.9-3.1c0.6-0.6,1.7-0.9,3.2-0.9c1.4,0,2.4,0.3,3.1,0.9c0.6,0.6,1,1.6,1,3.1v3.5h-8.2V174.1z"/>
</g>
</svg>
