<?xml version="1.0" encoding="utf-8"?>
<svg version="1.1" xmlns:svg="http://www.w3.org/2000/svg"
	 xmlns:xlink="http://www.w3.org/1999/xlink"
	 xmlns="http://www.w3.org/2000/svg">
	<symbol id="skype" viewBox="0 0 400.932 400.932">
		<path d="M384.762,231.039c-6.361-8.792-9.309-19.53-9.297-30.382c0.001-0.063,0.001-0.126,0.001-0.19
		c0-96.649-78.35-174.999-174.999-174.999c-21.143,0-41.402,3.763-60.162,10.64c-10.149,3.72-21.267,4.435-31.672,1.504
		c-9.191-2.589-19.009-3.681-29.18-2.981c-42.725,2.94-77.121,37.955-79.335,80.724c-1.057,20.414,5.065,39.351,16.053,54.539
		c6.361,8.792,9.309,19.53,9.296,30.382c0,0.063,0,0.126,0,0.19c0,96.649,78.349,174.999,174.999,174.999
		c21.144,0,41.403-3.763,60.162-10.64c10.149-3.72,21.267-4.435,31.672-1.504c9.191,2.589,19.008,3.681,29.18,2.981
		c42.725-2.94,77.12-37.954,79.335-80.722C401.872,265.166,395.75,246.228,384.762,231.039z M206.873,169.093
		c35.286,8.391,88.608,21.071,88.608,79.806c0,28.934-14.249,51.006-40.124,62.149c-18.464,7.952-39.361,9.025-57.368,9.025
		c-55.336,0-90.286-43.028-91.747-44.86c-9.062-11.366-7.197-27.928,4.17-36.99c11.364-9.066,27.926-7.196,36.99,4.167
		c0.081,0.097,20.982,24.101,50.587,25.04c35.65,1.131,43.795-9.476,44.848-18.53c1.287-11.058-8.55-19.176-48.146-28.592
		c-33.562-7.982-84.287-20.044-84.287-74.137c0-16.845,6.851-71.807,95.013-71.807c55.668,0,88.527,43.829,89.899,45.695
		c8.61,11.713,6.096,28.189-5.617,36.798c-11.662,8.572-28.034,6.119-36.677-5.452c-0.62-0.797-19.429-21.723-47.605-24.398
		c-21.32-2.025-42.37,5.663-42.37,17.02C163.047,156.06,169.092,160.108,206.873,169.093z"/>
	</symbol>
	<symbol id="fb" viewBox="0 0 112.2 112.2">
		<path class="st0" d="M56.1,0C25.1,0,0,25.1,0,56.1s25.1,56.1,56.1,56.1c31,0,56.1-25.1,56.1-56.1S87.1,0,56.1,0z M71.6,34.3h-8.2
			c-1.3,0-3.2,0.7-3.2,3.5v7.6h11.3l-1.3,12.9h-10V95H45V58.3h-7.2V45.4H45v-8.3c0-6,2.8-15.3,15.3-15.3l11.2,0V34.3z"/>
	</symbol>
	<symbol id="github" viewBox="0 0 438.549 438.549">
		<path d="M409.132,114.573c-19.608-33.596-46.205-60.194-79.798-79.8C295.736,15.166,259.057,5.365,219.271,5.365
			c-39.781,0-76.472,9.804-110.063,29.408c-33.596,19.605-60.192,46.204-79.8,79.8C9.803,148.168,0,184.854,0,224.63
			c0,47.78,13.94,90.745,41.827,128.906c27.884,38.164,63.906,64.572,108.063,79.227c5.14,0.954,8.945,0.283,11.419-1.996
			c2.475-2.282,3.711-5.14,3.711-8.562c0-0.571-0.049-5.708-0.144-15.417c-0.098-9.709-0.144-18.179-0.144-25.406l-6.567,1.136
			c-4.187,0.767-9.469,1.092-15.846,1c-6.374-0.089-12.991-0.757-19.842-1.999c-6.854-1.231-13.229-4.086-19.13-8.559
			c-5.898-4.473-10.085-10.328-12.56-17.556l-2.855-6.57c-1.903-4.374-4.899-9.233-8.992-14.559
			c-4.093-5.331-8.232-8.945-12.419-10.848l-1.999-1.431c-1.332-0.951-2.568-2.098-3.711-3.429c-1.142-1.331-1.997-2.663-2.568-3.997
			c-0.572-1.335-0.098-2.43,1.427-3.289c1.525-0.859,4.281-1.276,8.28-1.276l5.708,0.853c3.807,0.763,8.516,3.042,14.133,6.851
			c5.614,3.806,10.229,8.754,13.846,14.842c4.38,7.806,9.657,13.754,15.846,17.847c6.184,4.093,12.419,6.136,18.699,6.136
			c6.28,0,11.704-0.476,16.274-1.423c4.565-0.952,8.848-2.383,12.847-4.285c1.713-12.758,6.377-22.559,13.988-29.41
			c-10.848-1.14-20.601-2.857-29.264-5.14c-8.658-2.286-17.605-5.996-26.835-11.14c-9.235-5.137-16.896-11.516-22.985-19.126
			c-6.09-7.614-11.088-17.61-14.987-29.979c-3.901-12.374-5.852-26.648-5.852-42.826c0-23.035,7.52-42.637,22.557-58.817
			c-7.044-17.318-6.379-36.732,1.997-58.24c5.52-1.715,13.706-0.428,24.554,3.853c10.85,4.283,18.794,7.952,23.84,10.994
			c5.046,3.041,9.089,5.618,12.135,7.708c17.705-4.947,35.976-7.421,54.818-7.421s37.117,2.474,54.823,7.421l10.849-6.849
			c7.419-4.57,16.18-8.758,26.262-12.565c10.088-3.805,17.802-4.853,23.134-3.138c8.562,21.509,9.325,40.922,2.279,58.24
			c15.036,16.18,22.559,35.787,22.559,58.817c0,16.178-1.958,30.497-5.853,42.966c-3.9,12.471-8.941,22.457-15.125,29.979
			c-6.191,7.521-13.901,13.85-23.131,18.986c-9.232,5.14-18.182,8.85-26.84,11.136c-8.662,2.286-18.415,4.004-29.263,5.146
			c9.894,8.562,14.842,22.077,14.842,40.539v60.237c0,3.422,1.19,6.279,3.572,8.562c2.379,2.279,6.136,2.95,11.276,1.995
			c44.163-14.653,80.185-41.062,108.068-79.226c27.88-38.161,41.825-81.126,41.825-128.906
			C438.536,184.851,428.728,148.168,409.132,114.573z"/>
	</symbol>
	<symbol id="t" viewBox="0 0 112.2 112.2">
		<path d="M56.1,0C25.1,0,0,25.1,0,56.1s25.1,56.1,56.1,56.1s56.1-25.1,56.1-56.1S87.1,0,56.1,0z M74.1,90.3
			c-3.8,1.2-7.6,1.9-11.5,2c-3,0-6-0.3-8.8-1.1C46.9,89.5,43,85,42.1,77.5v-1c0-0.4,0-9.3-0.1-26.4h-7.1V38c1.4,0.1,2.8,0,4.2-0.7
			c4.9-2.1,7.8-6,8.8-11.6c0-0.3,0.1-0.6,0.2-0.9c0-0.7,0.1-1.3,0.3-1.9h9.7V38h15.5v12.1H58.2v19c0,1.8,0.2,3.7,0.5,5.5
			c0.1,0.4,0.4,0.9,0.7,1.2c2.4,2.2,5.3,2.9,8.7,1.9c1.8-0.6,3.8-1.1,6-1.8V90.3z"/>
	</symbol>
	<symbol id="yt" viewBox="0 0 291.3 291.3">
		<path d="M163.6,166.3c-1.5,0-2.9,0.3-4.4,0.8c-1.4,0.5-2.8,1.3-4.1,2.3v-14.5h-9.6v45.1h9.6v-2.5
			c1.2,1,2.6,1.8,4.1,2.3c1.4,0.5,3.1,0.7,5,0.7c2.8,0,5-0.6,6.4-1.9c1.5-1.3,2.2-3.1,2.2-5.4c0,0,0-18.5,0-18.5
			c0-2.7-0.8-4.8-2.4-6.2C168.9,167,166.6,166.3,163.6,166.3z M163.1,192.2c0,1-0.3,1.8-0.8,2.3c-0.5,0.5-1.4,0.7-2.6,0.7l-2.3-0.4
			c-0.7-0.2-1.5-0.6-2.2-1.2v-20.7l2-1l2-0.3c1.3,0,2.3,0.3,2.9,0.9c0.7,0.6,1,1.4,1,2.6V192.2z"/>
		<polygon points="81.9,161.3 91.1,161.3 91.1,199.4 100,199.4 100,161.3 109.1,161.3 109.1,154.8 81.9,154.8 	"/>
		<path d="M127,191.2c-0.9,0.8-1.9,1.4-3,1.9c-1.1,0.5-2,0.8-2.7,0.8c-0.9,0-1.6-0.2-2-0.6c-0.4-0.4-0.6-1-0.6-1.8v-27.6
			h-9.6V194c0,2.1,0.6,3.7,1.7,4.8c1.1,1.1,2.8,1.6,5,1.6c1.8,0,3.7-0.4,5.6-1.2c1.9-0.7,3.8-1.9,5.5-3.3v4h9.6c0,0,0-36,0-36H127
			V191.2z"/>
		<path d="M138.5,108.4c0.8,0.6,2,0.9,3.5,0.9c1.5,0,2.8-0.3,3.7-0.9c0.9-0.6,1.4-1.4,1.4-2.4v-21c0-0.8-0.5-1.5-1.4-2
			c-0.9-0.5-2.1-0.8-3.7-0.8c-1.4,0-2.5,0.3-3.4,0.8c-0.9,0.5-1.3,1.2-1.3,2v21C137.3,107,137.7,107.8,138.5,108.4z"/>
		<path d="M145.7,0C65.2,0,0,65.2,0,145.7s65.2,145.7,145.7,145.7s145.7-65.2,145.7-145.7S226.1,0,145.7,0z M166.6,73
			h8.6v34c0,1,0.2,1.8,0.6,2.3c0.3,0.5,0.9,0.7,1.7,0.7c0.6,0,1.4-0.3,2.4-0.9c1-0.6,1.8-1.4,2.6-2.4V73h8.6v44.3h-8.6v-4.9
			c-1.6,1.8-3.2,3.2-5,4.1c-1.7,0.9-3.4,1.9-5,1.9c-2,0-3.5-1.1-4.5-2.4c-1-1.3-1.5-3.3-1.5-5.9V73z M127.5,83.9
			c0-3.3,1.4-5.9,4.1-7.9c2.7-2,6.4-2.9,11-2.9c4.2,0,7.6,1,10.3,3.1c2.7,2.1,4,4.8,4,8v22.1c0,3.7-1.3,6.5-3.9,8.6
			c-2.6,2.1-6.2,3.5-10.9,3.5c-4.4,0-8-1.5-10.7-3.7c-2.7-2.2-4-5-4-8.7V83.9z M102,54.7l7,25.5h0.7l6.7-25.5h11L114.9,92v26.5H104
			c0,0,0-25.3,0-25.3L91,54.7H102z M227.6,189.7c0,15.9-13.4,28.8-29.9,28.8h-104c-16.5,0-29.9-12.9-29.9-28.8v-24.3
			c0-15.9,13.4-28.8,29.9-28.8h104c16.5,0,29.9,12.9,29.9,28.8V189.7z"/>
		<path d="M199.9,189.4c0,2-0.3,3.3-0.9,3.9c-0.6,0.6-1.7,0.9-3.2,0.9c-1.5,0-2.5-0.3-3.1-1c-0.6-0.7-0.9-2-0.9-3.8v-6.5
			h17.7c0,0,0-8.8,0-8.8c0-3.3-1.1-5.8-3.4-7.5c-2.3-1.7-5.5-2.6-9.8-2.6c-4.1,0-7.5,0.9-10.1,2.8c-2.6,1.9-3.9,4.3-3.9,7.3v15.5
			c0,3.3,1.2,5.9,3.6,7.8c2.4,1.9,5.6,2.8,9.8,2.8c4.6,0,8.1-0.9,10.4-2.7c2.3-1.8,3.5-4.5,3.5-8v-1.8h-9.5V189.4z M192.1,174.1
			c0-1.4,0.3-2.5,0.9-3.1c0.6-0.6,1.7-0.9,3.2-0.9c1.4,0,2.4,0.3,3.1,0.9c0.6,0.6,1,1.6,1,3.1v3.5h-8.2V174.1z"/>
	</symbol>
	<symbol id="email" viewBox="0 0 216 216">
		<path d="M108,0C48.353,0,0,48.353,0,108s48.353,108,108,108s108-48.353,108-108S167.647,0,108,0z M156.657,60L107.96,98.498  L57.679,60H156.657z M161.667,156h-109V76.259l50.244,38.11c1.347,1.03,3.34,1.545,4.947,1.545c1.645,0,3.073-0.54,4.435-1.616  l49.374-39.276V156z"/>
	</symbol>
</svg>