<?xml version="1.0" encoding="utf-8"?>
<!-- Generator: Adobe Illustrator 19.2.1, SVG Export Plug-In . SVG Version: 6.00 Build 0)  -->
<svg version="1.1" id="Capa_1" xmlns="http://www.w3.org/2000/svg" xmlns:xlink="http://www.w3.org/1999/xlink" x="0px" y="0px"
	 viewBox="0 0 112.2 112.2" style="enable-background:new 0 0 112.2 112.2;" xml:space="preserve">
<style type="text/css">
	.st0{fill:#395976;}
</style>
<path class="st0" d="M56.1,0C25.1,0,0,25.1,0,56.1s25.1,56.1,56.1,56.1s56.1-25.1,56.1-56.1S87.1,0,56.1,0z M74.1,90.3
	c-3.8,1.2-7.6,1.9-11.5,2c-3,0-6-0.3-8.8-1.1C46.9,89.5,43,85,42.1,77.5v-1c0-0.4,0-9.3-0.1-26.4h-7.1V38c1.4,0.1,2.8,0,4.2-0.7
	c4.9-2.1,7.8-6,8.8-11.6c0-0.3,0.1-0.6,0.2-0.9c0-0.7,0.1-1.3,0.3-1.9h9.7V38h15.5v12.1H58.2v19c0,1.8,0.2,3.7,0.5,5.5
	c0.1,0.4,0.4,0.9,0.7,1.2c2.4,2.2,5.3,2.9,8.7,1.9c1.8-0.6,3.8-1.1,6-1.8V90.3z"/>
</svg>
